<mxfile host="app.diagrams.net" modified="2021-04-19T11:05:47.329Z" agent="5.0 (X11; Linux x86_64) AppleWebKit/537.36 (KHTML, like Gecko) Chrome/90.0.4430.72 Safari/537.36" etag="S0HZZ33KqIcYfyoWhCyY" version="14.6.1" type="github">
  <diagram id="cIsAbXOn0fG40pXFTt9t" name="Page-1">
    <mxGraphModel dx="1422" dy="721" grid="1" gridSize="10" guides="1" tooltips="1" connect="1" arrows="1" fold="1" page="1" pageScale="1" pageWidth="827" pageHeight="1169" math="0" shadow="0">
      <root>
        <mxCell id="0" />
        <mxCell id="1" parent="0" />
        <mxCell id="EnziF2SyiIJf_Op6qG2r-1" value="cities" style="shape=table;startSize=30;container=1;collapsible=1;childLayout=tableLayout;fixedRows=1;rowLines=0;fontStyle=1;align=center;resizeLast=1;" vertex="1" parent="1">
          <mxGeometry x="80" y="505" width="180" height="130" as="geometry" />
        </mxCell>
        <mxCell id="EnziF2SyiIJf_Op6qG2r-2" value="" style="shape=partialRectangle;collapsible=0;dropTarget=0;pointerEvents=0;fillColor=none;top=0;left=0;bottom=1;right=0;points=[[0,0.5],[1,0.5]];portConstraint=eastwest;" vertex="1" parent="EnziF2SyiIJf_Op6qG2r-1">
          <mxGeometry y="30" width="180" height="30" as="geometry" />
        </mxCell>
        <mxCell id="EnziF2SyiIJf_Op6qG2r-3" value="PK" style="shape=partialRectangle;connectable=0;fillColor=none;top=0;left=0;bottom=0;right=0;fontStyle=1;overflow=hidden;" vertex="1" parent="EnziF2SyiIJf_Op6qG2r-2">
          <mxGeometry width="30" height="30" as="geometry" />
        </mxCell>
        <mxCell id="EnziF2SyiIJf_Op6qG2r-4" value="name" style="shape=partialRectangle;connectable=0;fillColor=none;top=0;left=0;bottom=0;right=0;align=left;spacingLeft=6;fontStyle=5;overflow=hidden;" vertex="1" parent="EnziF2SyiIJf_Op6qG2r-2">
          <mxGeometry x="30" width="150" height="30" as="geometry" />
        </mxCell>
        <mxCell id="EnziF2SyiIJf_Op6qG2r-5" value="" style="shape=partialRectangle;collapsible=0;dropTarget=0;pointerEvents=0;fillColor=none;top=0;left=0;bottom=0;right=0;points=[[0,0.5],[1,0.5]];portConstraint=eastwest;" vertex="1" parent="EnziF2SyiIJf_Op6qG2r-1">
          <mxGeometry y="60" width="180" height="30" as="geometry" />
        </mxCell>
        <mxCell id="EnziF2SyiIJf_Op6qG2r-6" value="" style="shape=partialRectangle;connectable=0;fillColor=none;top=0;left=0;bottom=0;right=0;editable=1;overflow=hidden;" vertex="1" parent="EnziF2SyiIJf_Op6qG2r-5">
          <mxGeometry width="30" height="30" as="geometry" />
        </mxCell>
        <mxCell id="EnziF2SyiIJf_Op6qG2r-7" value="area" style="shape=partialRectangle;connectable=0;fillColor=none;top=0;left=0;bottom=0;right=0;align=left;spacingLeft=6;overflow=hidden;" vertex="1" parent="EnziF2SyiIJf_Op6qG2r-5">
          <mxGeometry x="30" width="150" height="30" as="geometry" />
        </mxCell>
        <mxCell id="EnziF2SyiIJf_Op6qG2r-8" value="" style="shape=partialRectangle;collapsible=0;dropTarget=0;pointerEvents=0;fillColor=none;top=0;left=0;bottom=0;right=0;points=[[0,0.5],[1,0.5]];portConstraint=eastwest;" vertex="1" parent="EnziF2SyiIJf_Op6qG2r-1">
          <mxGeometry y="90" width="180" height="30" as="geometry" />
        </mxCell>
        <mxCell id="EnziF2SyiIJf_Op6qG2r-9" value="" style="shape=partialRectangle;connectable=0;fillColor=none;top=0;left=0;bottom=0;right=0;editable=1;overflow=hidden;" vertex="1" parent="EnziF2SyiIJf_Op6qG2r-8">
          <mxGeometry width="30" height="30" as="geometry" />
        </mxCell>
        <mxCell id="EnziF2SyiIJf_Op6qG2r-10" value="year_of_foundation" style="shape=partialRectangle;connectable=0;fillColor=none;top=0;left=0;bottom=0;right=0;align=left;spacingLeft=6;overflow=hidden;" vertex="1" parent="EnziF2SyiIJf_Op6qG2r-8">
          <mxGeometry x="30" width="150" height="30" as="geometry" />
        </mxCell>
        <mxCell id="EnziF2SyiIJf_Op6qG2r-35" style="rounded=0;orthogonalLoop=1;jettySize=auto;html=1;entryX=0;entryY=0.5;entryDx=0;entryDy=0;endArrow=none;endFill=0;exitX=1;exitY=0.5;exitDx=0;exitDy=0;" edge="1" parent="1" target="EnziF2SyiIJf_Op6qG2r-17">
          <mxGeometry relative="1" as="geometry">
            <mxPoint x="170" y="70" as="sourcePoint" />
          </mxGeometry>
        </mxCell>
        <mxCell id="EnziF2SyiIJf_Op6qG2r-15" value="has" style="shape=rhombus;perimeter=rhombusPerimeter;whiteSpace=wrap;html=1;align=center;" vertex="1" parent="1">
          <mxGeometry x="354" y="170" width="120" height="60" as="geometry" />
        </mxCell>
        <mxCell id="EnziF2SyiIJf_Op6qG2r-36" style="rounded=0;orthogonalLoop=1;jettySize=auto;html=1;entryX=0;entryY=0.5;entryDx=0;entryDy=0;endArrow=none;endFill=0;" edge="1" parent="1" source="EnziF2SyiIJf_Op6qG2r-16" target="EnziF2SyiIJf_Op6qG2r-17">
          <mxGeometry relative="1" as="geometry" />
        </mxCell>
        <mxCell id="EnziF2SyiIJf_Op6qG2r-16" value="area" style="ellipse;whiteSpace=wrap;html=1;align=center;" vertex="1" parent="1">
          <mxGeometry x="60" y="100" width="100" height="40" as="geometry" />
        </mxCell>
        <mxCell id="EnziF2SyiIJf_Op6qG2r-17" value="cities" style="whiteSpace=wrap;html=1;align=center;" vertex="1" parent="1">
          <mxGeometry x="210" y="110" width="100" height="40" as="geometry" />
        </mxCell>
        <mxCell id="EnziF2SyiIJf_Op6qG2r-18" value="streets" style="whiteSpace=wrap;html=1;align=center;" vertex="1" parent="1">
          <mxGeometry x="200" y="290" width="100" height="40" as="geometry" />
        </mxCell>
        <mxCell id="EnziF2SyiIJf_Op6qG2r-19" value="buildings" style="whiteSpace=wrap;html=1;align=center;" vertex="1" parent="1">
          <mxGeometry x="500.01" y="270" width="100" height="40" as="geometry" />
        </mxCell>
        <mxCell id="EnziF2SyiIJf_Op6qG2r-37" style="rounded=0;orthogonalLoop=1;jettySize=auto;html=1;entryX=0;entryY=0.5;entryDx=0;entryDy=0;endArrow=none;endFill=0;exitX=1;exitY=0.5;exitDx=0;exitDy=0;" edge="1" parent="1" source="EnziF2SyiIJf_Op6qG2r-20" target="EnziF2SyiIJf_Op6qG2r-17">
          <mxGeometry relative="1" as="geometry" />
        </mxCell>
        <mxCell id="EnziF2SyiIJf_Op6qG2r-20" value="year_of_foundation" style="ellipse;whiteSpace=wrap;html=1;align=center;" vertex="1" parent="1">
          <mxGeometry x="70" y="160" width="100" height="40" as="geometry" />
        </mxCell>
        <mxCell id="EnziF2SyiIJf_Op6qG2r-38" style="edgeStyle=none;rounded=0;orthogonalLoop=1;jettySize=auto;html=1;entryX=0;entryY=0.5;entryDx=0;entryDy=0;endArrow=none;endFill=0;exitX=1;exitY=0.5;exitDx=0;exitDy=0;" edge="1" parent="1" target="EnziF2SyiIJf_Op6qG2r-18">
          <mxGeometry relative="1" as="geometry">
            <mxPoint x="160" y="270" as="sourcePoint" />
          </mxGeometry>
        </mxCell>
        <mxCell id="EnziF2SyiIJf_Op6qG2r-40" style="edgeStyle=none;rounded=0;orthogonalLoop=1;jettySize=auto;html=1;entryX=0;entryY=0.5;entryDx=0;entryDy=0;endArrow=none;endFill=0;exitX=1;exitY=0.5;exitDx=0;exitDy=0;" edge="1" parent="1" source="EnziF2SyiIJf_Op6qG2r-22" target="EnziF2SyiIJf_Op6qG2r-18">
          <mxGeometry relative="1" as="geometry" />
        </mxCell>
        <mxCell id="EnziF2SyiIJf_Op6qG2r-22" value="street_length" style="ellipse;whiteSpace=wrap;html=1;align=center;" vertex="1" parent="1">
          <mxGeometry x="60" y="300" width="100" height="40" as="geometry" />
        </mxCell>
        <mxCell id="EnziF2SyiIJf_Op6qG2r-43" style="edgeStyle=none;rounded=0;orthogonalLoop=1;jettySize=auto;html=1;endArrow=none;endFill=0;entryX=1;entryY=0.5;entryDx=0;entryDy=0;" edge="1" parent="1" source="EnziF2SyiIJf_Op6qG2r-25" target="EnziF2SyiIJf_Op6qG2r-19">
          <mxGeometry relative="1" as="geometry">
            <mxPoint x="605" y="270" as="targetPoint" />
          </mxGeometry>
        </mxCell>
        <mxCell id="EnziF2SyiIJf_Op6qG2r-25" value="cadaster_number" style="ellipse;whiteSpace=wrap;html=1;align=center;" vertex="1" parent="1">
          <mxGeometry x="635" y="230" width="100" height="40" as="geometry" />
        </mxCell>
        <mxCell id="EnziF2SyiIJf_Op6qG2r-44" style="edgeStyle=none;rounded=0;orthogonalLoop=1;jettySize=auto;html=1;endArrow=none;endFill=0;exitX=0;exitY=0.5;exitDx=0;exitDy=0;" edge="1" parent="1" source="EnziF2SyiIJf_Op6qG2r-26">
          <mxGeometry relative="1" as="geometry">
            <mxPoint x="600" y="290" as="targetPoint" />
          </mxGeometry>
        </mxCell>
        <mxCell id="EnziF2SyiIJf_Op6qG2r-26" value="year_of_construction" style="ellipse;whiteSpace=wrap;html=1;align=center;" vertex="1" parent="1">
          <mxGeometry x="635" y="280" width="100" height="40" as="geometry" />
        </mxCell>
        <mxCell id="EnziF2SyiIJf_Op6qG2r-45" style="edgeStyle=none;rounded=0;orthogonalLoop=1;jettySize=auto;html=1;endArrow=none;endFill=0;exitX=0;exitY=0.5;exitDx=0;exitDy=0;entryX=1;entryY=0.5;entryDx=0;entryDy=0;" edge="1" parent="1" source="EnziF2SyiIJf_Op6qG2r-27" target="EnziF2SyiIJf_Op6qG2r-19">
          <mxGeometry relative="1" as="geometry">
            <mxPoint x="605" y="270" as="targetPoint" />
          </mxGeometry>
        </mxCell>
        <mxCell id="EnziF2SyiIJf_Op6qG2r-27" value="area" style="ellipse;whiteSpace=wrap;html=1;align=center;" vertex="1" parent="1">
          <mxGeometry x="635" y="330" width="100" height="40" as="geometry" />
        </mxCell>
        <mxCell id="EnziF2SyiIJf_Op6qG2r-41" style="edgeStyle=none;rounded=0;orthogonalLoop=1;jettySize=auto;html=1;entryX=0;entryY=0.5;entryDx=0;entryDy=0;endArrow=none;endFill=0;exitX=1;exitY=0.5;exitDx=0;exitDy=0;" edge="1" parent="1" source="EnziF2SyiIJf_Op6qG2r-28" target="EnziF2SyiIJf_Op6qG2r-18">
          <mxGeometry relative="1" as="geometry" />
        </mxCell>
        <mxCell id="EnziF2SyiIJf_Op6qG2r-28" value="is_asphalt" style="ellipse;whiteSpace=wrap;html=1;align=center;" vertex="1" parent="1">
          <mxGeometry x="60" y="350" width="100" height="40" as="geometry" />
        </mxCell>
        <mxCell id="EnziF2SyiIJf_Op6qG2r-49" value="" style="endArrow=none;html=1;rounded=0;entryX=1;entryY=0.5;entryDx=0;entryDy=0;exitX=0;exitY=1;exitDx=0;exitDy=0;" edge="1" parent="1" source="EnziF2SyiIJf_Op6qG2r-15" target="EnziF2SyiIJf_Op6qG2r-18">
          <mxGeometry relative="1" as="geometry">
            <mxPoint x="330" y="470" as="sourcePoint" />
            <mxPoint x="490" y="470" as="targetPoint" />
          </mxGeometry>
        </mxCell>
        <mxCell id="EnziF2SyiIJf_Op6qG2r-50" value="N" style="resizable=0;html=1;align=right;verticalAlign=bottom;" connectable="0" vertex="1" parent="EnziF2SyiIJf_Op6qG2r-49">
          <mxGeometry x="1" relative="1" as="geometry" />
        </mxCell>
        <mxCell id="EnziF2SyiIJf_Op6qG2r-51" value="" style="endArrow=none;html=1;rounded=0;entryX=1;entryY=0.5;entryDx=0;entryDy=0;" edge="1" parent="1" source="EnziF2SyiIJf_Op6qG2r-15" target="EnziF2SyiIJf_Op6qG2r-17">
          <mxGeometry relative="1" as="geometry">
            <mxPoint x="270" y="310" as="sourcePoint" />
            <mxPoint x="430" y="310" as="targetPoint" />
          </mxGeometry>
        </mxCell>
        <mxCell id="EnziF2SyiIJf_Op6qG2r-52" value="1" style="resizable=0;html=1;align=right;verticalAlign=bottom;" connectable="0" vertex="1" parent="EnziF2SyiIJf_Op6qG2r-51">
          <mxGeometry x="1" relative="1" as="geometry" />
        </mxCell>
        <mxCell id="EnziF2SyiIJf_Op6qG2r-53" value="" style="endArrow=none;html=1;rounded=0;entryX=0;entryY=0.5;entryDx=0;entryDy=0;exitX=1;exitY=0;exitDx=0;exitDy=0;" edge="1" parent="1" source="EnziF2SyiIJf_Op6qG2r-56" target="EnziF2SyiIJf_Op6qG2r-19">
          <mxGeometry relative="1" as="geometry">
            <mxPoint x="394" y="225" as="sourcePoint" />
            <mxPoint x="310" y="320" as="targetPoint" />
          </mxGeometry>
        </mxCell>
        <mxCell id="EnziF2SyiIJf_Op6qG2r-54" value="N" style="resizable=0;html=1;align=right;verticalAlign=bottom;" connectable="0" vertex="1" parent="EnziF2SyiIJf_Op6qG2r-53">
          <mxGeometry x="1" relative="1" as="geometry" />
        </mxCell>
        <mxCell id="EnziF2SyiIJf_Op6qG2r-55" value="name" style="ellipse;whiteSpace=wrap;html=1;align=center;fontStyle=4;" vertex="1" parent="1">
          <mxGeometry x="70" y="50" width="100" height="40" as="geometry" />
        </mxCell>
        <mxCell id="EnziF2SyiIJf_Op6qG2r-56" value="has" style="shape=rhombus;perimeter=rhombusPerimeter;whiteSpace=wrap;html=1;align=center;" vertex="1" parent="1">
          <mxGeometry x="310" y="370" width="120" height="60" as="geometry" />
        </mxCell>
        <mxCell id="EnziF2SyiIJf_Op6qG2r-57" value="" style="endArrow=none;html=1;rounded=0;entryX=0.5;entryY=1;entryDx=0;entryDy=0;exitX=0;exitY=0;exitDx=0;exitDy=0;" edge="1" parent="1" source="EnziF2SyiIJf_Op6qG2r-56" target="EnziF2SyiIJf_Op6qG2r-18">
          <mxGeometry relative="1" as="geometry">
            <mxPoint x="270" y="310" as="sourcePoint" />
            <mxPoint x="430" y="310" as="targetPoint" />
          </mxGeometry>
        </mxCell>
        <mxCell id="EnziF2SyiIJf_Op6qG2r-58" value="1" style="resizable=0;html=1;align=right;verticalAlign=bottom;" connectable="0" vertex="1" parent="EnziF2SyiIJf_Op6qG2r-57">
          <mxGeometry x="1" relative="1" as="geometry" />
        </mxCell>
        <mxCell id="EnziF2SyiIJf_Op6qG2r-60" value="street_name" style="ellipse;whiteSpace=wrap;html=1;align=center;fontStyle=4;" vertex="1" parent="1">
          <mxGeometry x="60" y="250" width="100" height="40" as="geometry" />
        </mxCell>
        <mxCell id="EnziF2SyiIJf_Op6qG2r-61" value="streets" style="shape=table;startSize=30;container=1;collapsible=1;childLayout=tableLayout;fixedRows=1;rowLines=0;fontStyle=1;align=center;resizeLast=1;" vertex="1" parent="1">
          <mxGeometry x="330" y="505" width="180" height="160" as="geometry" />
        </mxCell>
        <mxCell id="EnziF2SyiIJf_Op6qG2r-62" value="" style="shape=partialRectangle;collapsible=0;dropTarget=0;pointerEvents=0;fillColor=none;top=0;left=0;bottom=1;right=0;points=[[0,0.5],[1,0.5]];portConstraint=eastwest;" vertex="1" parent="EnziF2SyiIJf_Op6qG2r-61">
          <mxGeometry y="30" width="180" height="30" as="geometry" />
        </mxCell>
        <mxCell id="EnziF2SyiIJf_Op6qG2r-63" value="PK" style="shape=partialRectangle;connectable=0;fillColor=none;top=0;left=0;bottom=0;right=0;fontStyle=1;overflow=hidden;" vertex="1" parent="EnziF2SyiIJf_Op6qG2r-62">
          <mxGeometry width="30" height="30" as="geometry" />
        </mxCell>
        <mxCell id="EnziF2SyiIJf_Op6qG2r-64" value="street_name" style="shape=partialRectangle;connectable=0;fillColor=none;top=0;left=0;bottom=0;right=0;align=left;spacingLeft=6;fontStyle=5;overflow=hidden;" vertex="1" parent="EnziF2SyiIJf_Op6qG2r-62">
          <mxGeometry x="30" width="150" height="30" as="geometry" />
        </mxCell>
        <mxCell id="EnziF2SyiIJf_Op6qG2r-65" value="" style="shape=partialRectangle;collapsible=0;dropTarget=0;pointerEvents=0;fillColor=none;top=0;left=0;bottom=0;right=0;points=[[0,0.5],[1,0.5]];portConstraint=eastwest;" vertex="1" parent="EnziF2SyiIJf_Op6qG2r-61">
          <mxGeometry y="60" width="180" height="30" as="geometry" />
        </mxCell>
        <mxCell id="EnziF2SyiIJf_Op6qG2r-66" value="" style="shape=partialRectangle;connectable=0;fillColor=none;top=0;left=0;bottom=0;right=0;editable=1;overflow=hidden;" vertex="1" parent="EnziF2SyiIJf_Op6qG2r-65">
          <mxGeometry width="30" height="30" as="geometry" />
        </mxCell>
        <mxCell id="EnziF2SyiIJf_Op6qG2r-67" value="street_length" style="shape=partialRectangle;connectable=0;fillColor=none;top=0;left=0;bottom=0;right=0;align=left;spacingLeft=6;overflow=hidden;" vertex="1" parent="EnziF2SyiIJf_Op6qG2r-65">
          <mxGeometry x="30" width="150" height="30" as="geometry" />
        </mxCell>
        <mxCell id="EnziF2SyiIJf_Op6qG2r-68" value="" style="shape=partialRectangle;collapsible=0;dropTarget=0;pointerEvents=0;fillColor=none;top=0;left=0;bottom=0;right=0;points=[[0,0.5],[1,0.5]];portConstraint=eastwest;" vertex="1" parent="EnziF2SyiIJf_Op6qG2r-61">
          <mxGeometry y="90" width="180" height="30" as="geometry" />
        </mxCell>
        <mxCell id="EnziF2SyiIJf_Op6qG2r-69" value="" style="shape=partialRectangle;connectable=0;fillColor=none;top=0;left=0;bottom=0;right=0;editable=1;overflow=hidden;" vertex="1" parent="EnziF2SyiIJf_Op6qG2r-68">
          <mxGeometry width="30" height="30" as="geometry" />
        </mxCell>
        <mxCell id="EnziF2SyiIJf_Op6qG2r-70" value="is_asphalt" style="shape=partialRectangle;connectable=0;fillColor=none;top=0;left=0;bottom=0;right=0;align=left;spacingLeft=6;overflow=hidden;" vertex="1" parent="EnziF2SyiIJf_Op6qG2r-68">
          <mxGeometry x="30" width="150" height="30" as="geometry" />
        </mxCell>
        <mxCell id="EnziF2SyiIJf_Op6qG2r-71" value="" style="shape=partialRectangle;collapsible=0;dropTarget=0;pointerEvents=0;fillColor=none;top=0;left=0;bottom=0;right=0;points=[[0,0.5],[1,0.5]];portConstraint=eastwest;" vertex="1" parent="EnziF2SyiIJf_Op6qG2r-61">
          <mxGeometry y="120" width="180" height="30" as="geometry" />
        </mxCell>
        <mxCell id="EnziF2SyiIJf_Op6qG2r-72" value="FK" style="shape=partialRectangle;connectable=0;fillColor=none;top=0;left=0;bottom=0;right=0;editable=1;overflow=hidden;" vertex="1" parent="EnziF2SyiIJf_Op6qG2r-71">
          <mxGeometry width="30" height="30" as="geometry" />
        </mxCell>
        <mxCell id="EnziF2SyiIJf_Op6qG2r-73" value="name" style="shape=partialRectangle;connectable=0;fillColor=none;top=0;left=0;bottom=0;right=0;align=left;spacingLeft=6;overflow=hidden;" vertex="1" parent="EnziF2SyiIJf_Op6qG2r-71">
          <mxGeometry x="30" width="150" height="30" as="geometry" />
        </mxCell>
        <mxCell id="EnziF2SyiIJf_Op6qG2r-110" style="edgeStyle=orthogonalEdgeStyle;rounded=0;orthogonalLoop=1;jettySize=auto;html=1;entryX=0;entryY=0.5;entryDx=0;entryDy=0;endArrow=ERoneToMany;endFill=0;exitX=1;exitY=0.5;exitDx=0;exitDy=0;curved=1;startArrow=ERmandOne;startFill=0;" edge="1" parent="1" source="EnziF2SyiIJf_Op6qG2r-2" target="EnziF2SyiIJf_Op6qG2r-71">
          <mxGeometry relative="1" as="geometry" />
        </mxCell>
        <mxCell id="EnziF2SyiIJf_Op6qG2r-112" style="edgeStyle=orthogonalEdgeStyle;rounded=0;orthogonalLoop=1;jettySize=auto;html=1;entryX=0;entryY=0.5;entryDx=0;entryDy=0;endArrow=ERzeroToMany;endFill=1;startArrow=ERmandOne;startFill=0;exitX=1;exitY=0.5;exitDx=0;exitDy=0;curved=1;" edge="1" parent="1" source="EnziF2SyiIJf_Op6qG2r-62" target="EnziF2SyiIJf_Op6qG2r-129">
          <mxGeometry relative="1" as="geometry" />
        </mxCell>
        <mxCell id="EnziF2SyiIJf_Op6qG2r-115" value="address" style="ellipse;whiteSpace=wrap;html=1;align=center;fontStyle=4;" vertex="1" parent="1">
          <mxGeometry x="630" y="180" width="100" height="40" as="geometry" />
        </mxCell>
        <mxCell id="EnziF2SyiIJf_Op6qG2r-116" value="buildings" style="shape=table;startSize=30;container=1;collapsible=1;childLayout=tableLayout;fixedRows=1;rowLines=0;fontStyle=1;align=center;resizeLast=1;" vertex="1" parent="1">
          <mxGeometry x="570" y="505" width="180" height="190" as="geometry" />
        </mxCell>
        <mxCell id="EnziF2SyiIJf_Op6qG2r-117" value="" style="shape=partialRectangle;collapsible=0;dropTarget=0;pointerEvents=0;fillColor=none;top=0;left=0;bottom=1;right=0;points=[[0,0.5],[1,0.5]];portConstraint=eastwest;" vertex="1" parent="EnziF2SyiIJf_Op6qG2r-116">
          <mxGeometry y="30" width="180" height="30" as="geometry" />
        </mxCell>
        <mxCell id="EnziF2SyiIJf_Op6qG2r-118" value="PK" style="shape=partialRectangle;connectable=0;fillColor=none;top=0;left=0;bottom=0;right=0;fontStyle=1;overflow=hidden;" vertex="1" parent="EnziF2SyiIJf_Op6qG2r-117">
          <mxGeometry width="30" height="30" as="geometry" />
        </mxCell>
        <mxCell id="EnziF2SyiIJf_Op6qG2r-119" value="address" style="shape=partialRectangle;connectable=0;fillColor=none;top=0;left=0;bottom=0;right=0;align=left;spacingLeft=6;fontStyle=5;overflow=hidden;" vertex="1" parent="EnziF2SyiIJf_Op6qG2r-117">
          <mxGeometry x="30" width="150" height="30" as="geometry" />
        </mxCell>
        <mxCell id="EnziF2SyiIJf_Op6qG2r-120" value="" style="shape=partialRectangle;collapsible=0;dropTarget=0;pointerEvents=0;fillColor=none;top=0;left=0;bottom=0;right=0;points=[[0,0.5],[1,0.5]];portConstraint=eastwest;" vertex="1" parent="EnziF2SyiIJf_Op6qG2r-116">
          <mxGeometry y="60" width="180" height="30" as="geometry" />
        </mxCell>
        <mxCell id="EnziF2SyiIJf_Op6qG2r-121" value="" style="shape=partialRectangle;connectable=0;fillColor=none;top=0;left=0;bottom=0;right=0;editable=1;overflow=hidden;" vertex="1" parent="EnziF2SyiIJf_Op6qG2r-120">
          <mxGeometry width="30" height="30" as="geometry" />
        </mxCell>
        <mxCell id="EnziF2SyiIJf_Op6qG2r-122" value="cadaster_number" style="shape=partialRectangle;connectable=0;fillColor=none;top=0;left=0;bottom=0;right=0;align=left;spacingLeft=6;overflow=hidden;" vertex="1" parent="EnziF2SyiIJf_Op6qG2r-120">
          <mxGeometry x="30" width="150" height="30" as="geometry" />
        </mxCell>
        <mxCell id="EnziF2SyiIJf_Op6qG2r-123" value="" style="shape=partialRectangle;collapsible=0;dropTarget=0;pointerEvents=0;fillColor=none;top=0;left=0;bottom=0;right=0;points=[[0,0.5],[1,0.5]];portConstraint=eastwest;" vertex="1" parent="EnziF2SyiIJf_Op6qG2r-116">
          <mxGeometry y="90" width="180" height="30" as="geometry" />
        </mxCell>
        <mxCell id="EnziF2SyiIJf_Op6qG2r-124" value="" style="shape=partialRectangle;connectable=0;fillColor=none;top=0;left=0;bottom=0;right=0;editable=1;overflow=hidden;" vertex="1" parent="EnziF2SyiIJf_Op6qG2r-123">
          <mxGeometry width="30" height="30" as="geometry" />
        </mxCell>
        <mxCell id="EnziF2SyiIJf_Op6qG2r-125" value="year_of_construction" style="shape=partialRectangle;connectable=0;fillColor=none;top=0;left=0;bottom=0;right=0;align=left;spacingLeft=6;overflow=hidden;" vertex="1" parent="EnziF2SyiIJf_Op6qG2r-123">
          <mxGeometry x="30" width="150" height="30" as="geometry" />
        </mxCell>
        <mxCell id="EnziF2SyiIJf_Op6qG2r-126" value="" style="shape=partialRectangle;collapsible=0;dropTarget=0;pointerEvents=0;fillColor=none;top=0;left=0;bottom=0;right=0;points=[[0,0.5],[1,0.5]];portConstraint=eastwest;" vertex="1" parent="EnziF2SyiIJf_Op6qG2r-116">
          <mxGeometry y="120" width="180" height="30" as="geometry" />
        </mxCell>
        <mxCell id="EnziF2SyiIJf_Op6qG2r-127" value="" style="shape=partialRectangle;connectable=0;fillColor=none;top=0;left=0;bottom=0;right=0;editable=1;overflow=hidden;" vertex="1" parent="EnziF2SyiIJf_Op6qG2r-126">
          <mxGeometry width="30" height="30" as="geometry" />
        </mxCell>
        <mxCell id="EnziF2SyiIJf_Op6qG2r-128" value="area" style="shape=partialRectangle;connectable=0;fillColor=none;top=0;left=0;bottom=0;right=0;align=left;spacingLeft=6;overflow=hidden;" vertex="1" parent="EnziF2SyiIJf_Op6qG2r-126">
          <mxGeometry x="30" width="150" height="30" as="geometry" />
        </mxCell>
        <mxCell id="EnziF2SyiIJf_Op6qG2r-129" value="" style="shape=partialRectangle;collapsible=0;dropTarget=0;pointerEvents=0;fillColor=none;top=0;left=0;bottom=0;right=0;points=[[0,0.5],[1,0.5]];portConstraint=eastwest;" vertex="1" parent="1">
          <mxGeometry x="570" y="655" width="180" height="30" as="geometry" />
        </mxCell>
        <mxCell id="EnziF2SyiIJf_Op6qG2r-130" value="FK" style="shape=partialRectangle;connectable=0;fillColor=none;top=0;left=0;bottom=0;right=0;editable=1;overflow=hidden;" vertex="1" parent="EnziF2SyiIJf_Op6qG2r-129">
          <mxGeometry width="30" height="30" as="geometry" />
        </mxCell>
        <mxCell id="EnziF2SyiIJf_Op6qG2r-131" value="street_name" style="shape=partialRectangle;connectable=0;fillColor=none;top=0;left=0;bottom=0;right=0;align=left;spacingLeft=6;overflow=hidden;" vertex="1" parent="EnziF2SyiIJf_Op6qG2r-129">
          <mxGeometry x="30" width="150" height="30" as="geometry" />
        </mxCell>
        <mxCell id="EnziF2SyiIJf_Op6qG2r-132" style="edgeStyle=none;rounded=0;orthogonalLoop=1;jettySize=auto;html=1;endArrow=none;endFill=0;entryX=1;entryY=0.5;entryDx=0;entryDy=0;exitX=0;exitY=0.5;exitDx=0;exitDy=0;" edge="1" parent="1" source="EnziF2SyiIJf_Op6qG2r-115" target="EnziF2SyiIJf_Op6qG2r-19">
          <mxGeometry relative="1" as="geometry">
            <mxPoint x="610.01" y="300" as="targetPoint" />
            <mxPoint x="662.8403956788388" y="275.31409729579104" as="sourcePoint" />
          </mxGeometry>
        </mxCell>
      </root>
    </mxGraphModel>
  </diagram>
</mxfile>
